<svg width="32" height="32" viewBox="0 0 32 32" fill="none" xmlns="http://www.w3.org/2000/svg">
<g id="Frame">
<g id="Clip path group">
<mask id="mask0_0_3394" style="mask-type:luminance" maskUnits="userSpaceOnUse" x="0" y="0" width="32" height="32">
<g id="clip0_3825_65718">
<path id="Vector" d="M32 0H0V32H32V0Z" fill="white"/>
</g>
</mask>
<g mask="url(#mask0_0_3394)">
<g id="Group">
<path id="Vector_2" opacity="0.2" d="M4 26V7C4 6.73478 4.10536 6.48043 4.29289 6.29289C4.48043 6.10536 4.73478 6 5 6H27C27.2652 6 27.5196 6.10536 27.7071 6.29289C27.8946 6.48043 28 6.73478 28 7V26L24 24L20 26L16 24L12 26L8 24L4 26Z" fill="#010101"/>
<path id="Vector_3" d="M9.5 13H22.5" stroke="#010101" stroke-width="2" stroke-linecap="round" stroke-linejoin="round"/>
<path id="Vector_4" d="M9.5 17H22.5" stroke="#010101" stroke-width="2" stroke-linecap="round" stroke-linejoin="round"/>
<path id="Vector_5" d="M4 26V7C4 6.73478 4.10536 6.48043 4.29289 6.29289C4.48043 6.10536 4.73478 6 5 6H27C27.2652 6 27.5196 6.10536 27.7071 6.29289C27.8946 6.48043 28 6.73478 28 7V26L24 24L20 26L16 24L12 26L8 24L4 26Z" stroke="#010101" stroke-width="2" stroke-linecap="round" stroke-linejoin="round"/>
</g>
</g>
</g>
</g>
</svg>
