<svg width="20" height="20" viewBox="0 0 20 20" fill="none" xmlns="http://www.w3.org/2000/svg">
<g id="Frame">
<g id="Clip path group">
<mask id="mask0_0_3108" style="mask-type:luminance" maskUnits="userSpaceOnUse" x="0" y="0" width="20" height="20">
<g id="clip0_3853_65223">
<path id="Vector" d="M20 0H0V20H20V0Z" fill="white"/>
</g>
</mask>
<g mask="url(#mask0_0_3108)">
<g id="Group">
<path id="Vector_2" fill-rule="evenodd" clip-rule="evenodd" d="M20 10C20 15.5228 15.5228 20 10 20C4.47715 20 0 15.5228 0 10C0 4.47715 4.47715 0 10 0C15.5228 0 20 4.47715 20 10ZM10.3596 7.38197C9.38695 7.78653 7.44302 8.62386 4.52782 9.89397C4.05443 10.0822 3.80646 10.2664 3.78388 10.4465C3.74573 10.7508 4.12684 10.8706 4.64581 11.0338C4.7164 11.056 4.78954 11.079 4.86452 11.1034C5.37511 11.2693 6.06193 11.4635 6.41898 11.4712C6.74286 11.4782 7.10435 11.3447 7.50344 11.0706C10.2272 9.23203 11.6332 8.30271 11.7215 8.28267C11.7838 8.26854 11.8701 8.25077 11.9285 8.30274C11.987 8.35471 11.9813 8.45313 11.9751 8.47954C11.9373 8.64048 10.4413 10.0313 9.66717 10.751C9.42583 10.9754 9.25463 11.1345 9.21964 11.1709C9.14124 11.2523 9.06135 11.3293 8.98456 11.4034C8.51021 11.8606 8.1545 12.2035 9.00425 12.7635C9.41261 13.0326 9.73937 13.2551 10.0654 13.4771C10.4214 13.7196 10.7765 13.9614 11.2359 14.2626C11.353 14.3393 11.4648 14.419 11.5736 14.4966C11.988 14.792 12.3602 15.0574 12.8201 15.0151C13.0873 14.9905 13.3633 14.7392 13.5035 13.9898C13.8348 12.2188 14.4859 8.38158 14.6364 6.80034C14.6496 6.66181 14.633 6.48451 14.6197 6.40668C14.6064 6.32885 14.5785 6.21796 14.4774 6.13587C14.3576 6.03865 14.1726 6.01814 14.0899 6.0196C13.7138 6.02623 13.1367 6.22688 10.3596 7.38197Z" fill="#555D67"/>
</g>
</g>
</g>
</g>
</svg>
